<?xml version="1.0" standalone="no"?>
<!DOCTYPE svg PUBLIC "-//W3C//DTD SVG 20010904//EN"
 "http://www.w3.org/TR/2001/REC-SVG-20010904/DTD/svg10.dtd">
<svg version="1.0" xmlns="http://www.w3.org/2000/svg"
 width="1200.000000pt" height="1200.000000pt" viewBox="0 0 1200.000000 1200.000000"
 preserveAspectRatio="xMidYMid meet">
<metadata>
Created by potrace 1.11, written by Peter Selinger 2001-2013
</metadata>
<g transform="translate(0.000000,1200.000000) scale(0.100000,-0.100000)"
fill="#000000" stroke="none">
<path d="M0 6000 l0 -6000 6000 0 6000 0 0 6000 0 6000 -6000 0 -6000 0 0
-6000z m6115 3709 c17 -7 31 -14 33 -14 4 -3 -217 -470 -223 -470 -6 0 -265
375 -265 384 0 8 275 122 315 131 30 7 82 -5 140 -31z m391 -165 c164 -69 354
-148 422 -176 67 -27 122 -55 122 -61 0 -8 -247 -467 -463 -860 l-59 -108 -47
68 c-160 229 -511 746 -511 753 0 8 231 510 235 510 1 0 136 -57 301 -126z
m-760 -169 c80 -118 148 -215 150 -215 2 0 10 12 17 27 l14 26 18 -26 c15 -23
15 -32 5 -56 l-12 -30 -21 25 -22 25 -405 -866 -405 -865 -21 23 c-17 17 -780
947 -816 994 -6 7 10 59 46 145 55 133 186 451 213 519 15 36 21 39 297 155
217 91 783 329 793 333 1 1 68 -96 149 -214z m1586 -177 c137 -58 147 -64 161
-97 8 -20 52 -126 97 -236 95 -230 242 -589 336 -819 36 -87 64 -164 62 -171
-2 -6 -115 -217 -252 -468 -199 -365 -252 -455 -262 -445 -7 7 -211 303 -454
658 -243 355 -445 649 -450 654 -4 4 -15 -4 -22 -19 l-15 -27 -17 26 c-13 21
-14 30 -5 49 17 32 17 32 37 7 l18 -23 30 54 c17 30 140 255 274 501 l243 447
36 -15 c20 -8 102 -42 183 -76z m-1107 -522 c233 -339 266 -393 259 -413 -18
-46 -829 -1532 -836 -1530 -4 1 -116 135 -249 297 -302 370 -273 339 -292 304
l-15 -28 -13 22 c-8 12 -17 22 -20 22 -4 0 -127 -258 -274 -572 -147 -315
-271 -576 -274 -580 -3 -4 -140 319 -303 718 l-298 726 29 71 c15 40 62 155
104 257 42 102 96 234 120 293 25 59 47 109 51 110 3 1 188 -221 411 -493 224
-272 412 -501 420 -509 12 -13 16 -10 25 15 l12 29 18 -22 c10 -13 20 -23 22
-23 3 0 186 387 408 861 327 699 405 858 416 847 7 -7 133 -188 279 -402z
m412 -601 c431 -630 715 -1043 761 -1109 l55 -78 15 27 14 28 19 -24 c16 -20
20 -22 29 -9 5 8 119 215 251 459 l242 443 34 -83 34 -84 -202 -492 c-111
-271 -205 -490 -209 -488 -5 3 -40 52 -80 110 -39 58 -74 105 -78 105 -4 0
-13 -10 -20 -21 l-14 -21 -15 22 c-9 12 -19 18 -24 13 -5 -5 -124 -220 -265
-478 -141 -259 -261 -473 -267 -477 -6 -4 -110 -48 -230 -99 -184 -77 -221
-90 -231 -78 -7 8 -176 214 -376 459 -399 489 -391 479 -396 465 -15 -36 -22
-39 -44 -20 -18 16 -23 17 -30 5 -5 -8 -103 -186 -217 -396 -188 -345 -210
-381 -228 -374 -225 91 -609 260 -608 268 5 21 537 1152 542 1151 3 0 121
-141 261 -314 l255 -313 18 24 19 24 17 -22 18 -22 15 25 c9 13 186 337 393
719 461 848 436 803 445 793 5 -4 48 -66 97 -138z m943 -1375 l77 -114 -72
-175 c-39 -97 -80 -195 -91 -219 l-19 -43 -225 -94 c-123 -52 -226 -93 -228
-91 -7 8 461 857 471 853 6 -2 45 -54 87 -117z m-1554 -527 c198 -240 364
-444 371 -454 11 -15 -7 -25 -174 -94 -137 -57 -198 -77 -227 -76 -28 0 -151
47 -394 148 -194 82 -353 152 -354 156 -2 12 404 757 413 757 3 0 168 -197
365 -437z m514 -1883 l0 -400 -65 0 c-62 0 -65 1 -65 25 l0 24 -25 -24 c-44
-45 -176 -28 -207 27 -17 31 -24 397 -8 457 15 56 55 81 131 81 42 0 63 -5 83
-21 l26 -20 0 125 0 126 65 0 65 0 0 -400z m2330 0 l0 -400 -70 0 -70 0 0 400
0 400 70 0 70 0 0 -400z m-6302 118 l80 -243 1 243 1 243 63 -3 62 -3 0 -375
0 -375 -64 0 -65 0 -80 245 -81 245 -3 -247 -2 -248 -60 0 -60 0 0 380 0 380
64 0 65 0 79 -242z m749 224 c50 -27 53 -49 53 -364 0 -323 -2 -331 -60 -360
-45 -23 -233 -25 -285 -4 -58 25 -60 34 -63 331 -5 358 -2 373 75 401 46 17
246 14 280 -4z m453 -207 c35 -124 65 -224 66 -222 2 1 30 98 63 216 34 117
63 217 67 222 3 5 36 9 75 9 l69 0 0 -380 0 -380 -60 0 -60 0 -1 258 0 257
-44 -160 c-24 -88 -48 -167 -53 -175 -13 -21 -101 -21 -112 -1 -4 9 -27 88
-51 176 l-44 160 -3 -257 -2 -258 -60 0 -60 0 0 380 0 380 74 0 73 0 63 -225z
m861 215 c19 -6 46 -21 59 -35 20 -22 23 -36 26 -127 3 -113 -7 -177 -30 -193
-13 -10 -12 -14 7 -34 21 -20 22 -31 22 -154 -1 -88 -5 -140 -14 -155 -23 -43
-67 -52 -241 -52 l-160 0 0 380 0 380 148 0 c81 0 163 -5 183 -10z m409 -370
l0 -380 -65 0 c-58 0 -65 2 -66 20 0 11 0 171 0 355 0 184 0 346 0 360 1 24 4
25 66 25 l65 0 0 -380z m551 361 c48 -24 54 -50 54 -223 l0 -160 -31 -28 c-17
-15 -36 -29 -43 -31 -6 -3 13 -60 49 -147 33 -79 60 -145 60 -148 0 -3 -33 -4
-72 -2 l-73 3 -56 145 c-51 130 -59 145 -80 145 l-24 0 0 -145 0 -145 -67 -3
-68 -3 0 381 0 382 163 -4 c107 -3 171 -8 188 -17z m379 -361 l0 -380 -65 0
c-58 0 -65 2 -66 20 0 11 0 171 0 355 0 184 0 346 0 360 1 24 4 25 66 25 l65
0 0 -380z m1070 192 c55 -27 62 -63 58 -297 -2 -142 -7 -207 -16 -223 -22 -38
-71 -52 -183 -52 -113 0 -159 14 -178 56 -15 34 -15 447 0 477 24 45 56 55
184 56 77 1 108 -3 135 -17z m356 -9 c1 -13 2 -25 3 -27 0 -3 14 9 30 25 20
19 40 29 60 29 l31 0 0 -57 0 -58 -42 -2 c-77 -5 -78 -7 -78 -255 l0 -218 -70
0 -70 0 0 295 0 296 68 -3 c62 -3 67 -5 68 -25z m389 -180 c21 -115 40 -215
43 -223 3 -8 21 71 39 175 17 105 35 205 38 223 l6 32 64 0 c50 0 65 -3 65
-14 0 -41 -133 -635 -148 -661 -32 -53 -76 -75 -153 -75 l-69 0 0 50 0 50 41
0 c52 0 74 13 87 50 11 30 11 30 -24 30 -18 0 -34 2 -34 5 0 3 -29 129 -65
281 -36 152 -65 278 -65 280 0 2 31 4 68 4 l69 0 38 -207z m715 189 c55 -27
62 -63 58 -297 -2 -142 -7 -207 -16 -223 -22 -38 -71 -52 -183 -52 -113 0
-159 14 -178 56 -15 34 -15 447 0 477 24 45 56 55 184 56 77 1 108 -3 135 -17z
m640 9 c0 -5 -27 -66 -60 -136 -33 -70 -60 -133 -60 -140 0 -7 29 -78 64 -159
l64 -146 -72 0 -71 0 -63 153 -63 153 52 114 c83 186 70 170 144 170 36 0 65
-4 65 -9z m260 -218 c0 -126 4 -234 9 -242 11 -16 58 -22 84 -9 15 8 17 30 17
243 l0 235 70 0 70 0 0 -295 0 -295 -71 0 c-38 0 -68 4 -65 8 2 4 1 14 -5 22
-5 8 -9 10 -9 4 0 -21 -58 -37 -116 -32 -43 4 -61 11 -82 32 l-27 26 -3 265
-3 265 66 0 65 0 0 -227z m-8040 -1428 l0 -195 -30 0 -30 0 0 195 0 195 30 0
30 0 0 -195z m1590 170 c0 -22 -4 -25 -34 -25 -30 0 -33 2 -28 25 3 20 10 25
33 25 24 0 29 -4 29 -25z m1380 -170 l0 -195 -30 0 -30 0 0 195 0 195 30 0 30
0 0 -195z m2800 0 l0 -195 -30 0 -30 0 0 195 0 195 30 0 30 0 0 -195z m150 0
l0 -195 -30 0 -30 0 0 195 0 195 30 0 30 0 0 -195z m660 170 c0 -22 -4 -25
-34 -25 -30 0 -33 2 -28 25 3 20 10 25 33 25 24 0 29 -4 29 -25z m810 -34 l0
-59 30 11 c25 9 36 9 58 -4 27 -15 27 -15 30 -147 l3 -132 -30 0 -30 0 -3 118
-3 117 -25 0 -25 0 -3 -117 -3 -118 -29 0 -30 0 0 195 0 195 30 0 c30 0 30 0
30 -59z m-7530 14 c0 -24 -3 -25 -54 -25 l-54 0 3 -47 c2 -27 3 -51 4 -54 1
-3 20 -5 44 -5 36 1 42 -2 45 -21 3 -20 -2 -22 -45 -25 l-48 -3 0 -57 -1 -58
58 0 c55 0 58 -1 58 -25 0 -25 -1 -25 -90 -25 l-90 0 0 185 0 185 85 0 c84 0
85 0 85 -25z m830 -30 c0 -18 5 -25 19 -25 13 0 19 -7 19 -25 0 -18 -6 -25
-19 -25 -17 0 -19 -9 -19 -94 0 -84 2 -94 19 -99 31 -8 20 -41 -15 -45 -57 -6
-68 14 -71 129 -1 68 -6 105 -14 110 -20 12 -19 38 1 49 12 6 16 17 13 30 -5
17 0 20 31 20 32 0 36 -3 36 -25z m3240 0 c0 -18 5 -25 19 -25 13 0 19 -7 19
-25 0 -18 -6 -25 -19 -25 -17 0 -19 -9 -19 -94 0 -84 2 -94 19 -99 31 -8 20
-41 -15 -45 -57 -6 -68 14 -71 129 -2 66 -7 105 -15 110 -19 12 -18 38 2 49
12 6 16 17 13 30 -5 17 0 20 31 20 32 0 36 -3 36 -25z m2290 0 c0 -18 5 -25
19 -25 13 0 19 -7 19 -25 0 -18 -6 -25 -19 -25 -17 0 -19 -9 -19 -94 0 -84 2
-94 19 -99 31 -8 20 -41 -15 -45 -57 -6 -67 14 -70 128 -2 68 -7 106 -15 111
-18 11 -20 39 -3 46 8 3 14 16 14 29 0 21 5 24 35 24 31 0 35 -3 35 -25z
m1730 0 c0 -18 5 -25 19 -25 13 0 19 -7 19 -25 0 -18 -6 -25 -19 -25 -17 0
-19 -9 -19 -94 0 -84 2 -94 19 -99 31 -8 20 -41 -15 -45 -57 -6 -68 14 -71
129 -2 66 -7 105 -15 110 -19 12 -18 38 2 49 12 6 16 17 13 30 -5 17 0 20 31
20 32 0 36 -3 36 -25z m1230 0 c0 -18 5 -25 19 -25 13 0 19 -7 19 -25 0 -18
-6 -25 -19 -25 -17 0 -19 -9 -19 -94 0 -84 2 -94 19 -99 31 -8 20 -41 -15 -45
-57 -6 -68 14 -71 129 -2 66 -7 105 -15 110 -19 12 -18 38 2 49 12 6 16 17 13
30 -5 17 0 20 31 20 32 0 36 -3 36 -25z m-8922 -41 c19 -13 22 -24 22 -79 l0
-64 -62 -3 c-67 -3 -67 -3 -59 -68 0 -5 15 -10 31 -10 23 0 30 5 30 18 0 14 8
19 30 20 27 1 30 -3 30 -28 0 -40 -32 -60 -95 -60 -82 0 -90 10 -91 132 -1
122 2 137 30 148 35 14 110 11 134 -6z m263 -1 c5 -5 11 -25 12 -44 2 -30 -1
-34 -25 -36 -22 -1 -29 3 -34 23 -4 17 -13 24 -30 24 -26 0 -26 2 -26 -105 0
-36 1 -69 1 -75 1 -5 12 -10 26 -10 14 0 26 5 26 10 1 6 2 16 3 23 0 6 14 12
30 12 26 0 30 -4 32 -29 2 -45 -26 -66 -89 -66 -85 0 -91 9 -95 138 -3 103 -2
112 18 132 19 19 30 22 81 18 33 -2 64 -9 70 -15z m329 0 c0 -15 1 -15 18 0
28 25 44 21 40 -10 -2 -16 -7 -27 -13 -26 -5 0 -18 -3 -27 -8 -16 -8 -18 -25
-18 -119 l0 -110 -30 0 -30 0 0 145 0 145 30 0 c21 0 30 -5 30 -17z m301 -4
c5 -7 9 -67 9 -131 0 -136 -1 -138 -94 -138 -86 0 -93 11 -92 149 1 100 4 115
21 128 26 19 142 14 156 -8z m169 12 c0 -5 14 -4 30 2 25 9 36 9 58 -4 27 -15
27 -15 30 -147 l3 -132 -30 0 -30 0 -3 118 -3 117 -25 0 -25 0 -3 -117 -3
-118 -29 0 -30 0 0 145 0 145 30 0 c17 0 30 -4 30 -9z m270 -136 l0 -145 -30
0 -30 0 0 145 0 145 30 0 30 0 0 -145z m251 128 c5 -5 11 -25 12 -44 2 -30 -1
-34 -25 -36 -22 -1 -29 3 -34 23 -4 17 -13 24 -30 24 -26 0 -26 2 -26 -105 0
-36 1 -69 1 -75 1 -5 12 -10 26 -10 14 0 26 5 26 10 1 6 2 16 3 23 0 6 14 12
30 12 26 0 30 -4 32 -29 2 -45 -26 -66 -89 -66 -85 0 -91 9 -95 138 -3 103 -2
112 18 132 19 19 30 22 81 18 33 -2 64 -9 70 -15z m280 -98 c16 -117 21 -117
39 0 17 117 16 115 54 115 l33 0 13 -92 c17 -125 25 -145 34 -82 3 27 11 77
17 112 11 59 12 62 40 62 25 0 29 -3 24 -22 -3 -13 -16 -77 -29 -143 l-23
-120 -36 -3 c-41 -4 -40 -5 -58 111 -6 43 -15 75 -18 71 -3 -3 -13 -45 -21
-92 l-15 -87 -37 -3 c-21 -2 -38 -2 -38 0 0 2 -11 61 -25 133 -31 162 -31 157
3 153 27 -3 27 -5 43 -113z m500 94 c5 -7 9 -67 9 -131 0 -136 -1 -138 -94
-138 -86 0 -93 11 -92 149 1 100 4 115 21 128 26 19 142 14 156 -8z m159 4 c0
-15 1 -15 18 0 28 25 44 21 40 -10 -2 -16 -7 -27 -13 -26 -5 0 -18 -3 -27 -8
-16 -8 -18 -25 -18 -119 l0 -110 -30 0 -30 0 0 145 0 145 30 0 c21 0 30 -5 30
-17z m296 -51 l-34 -68 33 -77 34 -77 -34 0 c-32 0 -34 3 -65 76 l-31 75 32
70 c30 65 34 69 66 69 l33 0 -34 -68z m294 59 c0 -5 14 -4 30 2 25 9 36 9 58
-4 27 -15 27 -15 30 -147 l3 -132 -30 0 -30 0 -3 118 -3 117 -25 0 -25 0 -3
-117 -3 -118 -29 0 -30 0 0 145 0 145 30 0 c17 0 30 -4 30 -9z m381 -12 c5 -7
9 -67 9 -131 0 -136 -1 -138 -94 -138 -86 0 -93 11 -92 149 1 100 4 115 21
128 26 19 142 14 156 -8z m437 5 c19 -13 22 -24 22 -79 l0 -64 -62 -3 c-67 -3
-67 -3 -59 -68 0 -5 15 -10 31 -10 23 0 30 5 30 18 0 14 8 19 30 20 27 1 30
-3 30 -28 0 -40 -32 -60 -95 -60 -82 0 -90 10 -91 132 -1 122 2 137 30 148 35
14 110 11 134 -6z m250 0 c12 -8 22 -26 22 -40 0 -20 -5 -24 -30 -24 -20 0
-30 5 -30 15 0 9 -9 15 -25 15 -22 0 -25 -4 -25 -35 0 -19 3 -35 8 -36 4 0 22
-2 40 -4 51 -5 62 -20 62 -86 0 -68 -12 -79 -84 -79 -51 0 -86 25 -86 60 0 16
7 20 30 20 20 0 30 -5 30 -15 0 -9 9 -15 25 -15 22 0 25 4 25 35 0 33 -2 35
-33 35 -56 0 -77 23 -77 85 0 64 21 85 85 85 22 0 51 -7 63 -16z m520 0 c12
-8 22 -26 22 -40 0 -20 -5 -24 -30 -24 -20 0 -30 5 -30 15 0 9 -9 15 -25 15
-22 0 -25 -4 -25 -35 0 -19 3 -35 8 -36 4 0 22 -2 40 -4 51 -5 62 -20 62 -86
0 -68 -12 -79 -84 -79 -51 0 -86 25 -86 60 0 16 7 20 30 20 20 0 30 -5 30 -15
0 -9 9 -15 25 -15 22 0 25 4 25 35 0 33 -2 35 -33 35 -56 0 -77 23 -77 85 0
64 21 85 85 85 22 0 51 -7 63 -16z m162 7 c0 -5 14 -4 31 2 24 10 35 9 58 -4
24 -14 30 -14 46 -3 27 20 62 17 85 -6 18 -18 20 -33 20 -145 l0 -125 -30 0
-29 0 -3 118 -3 117 -25 0 -25 0 -3 -117 -3 -118 -29 0 -29 0 -3 118 -3 117
-25 0 -25 0 -3 -117 -3 -118 -29 0 -30 0 0 145 0 145 30 0 c17 0 30 -4 30 -9z
m411 -1 c13 -7 19 -7 19 0 0 5 15 10 33 10 l33 0 0 -142 -1 -143 -32 -3 c-22
-2 -33 1 -33 9 0 10 -3 10 -12 1 -16 -16 -60 -15 -84 2 -16 12 -19 29 -22 124
-3 101 -2 112 17 131 23 23 52 27 82 11z m849 -7 c0 -15 1 -15 18 0 28 25 44
21 40 -10 -2 -16 -7 -27 -13 -26 -5 0 -18 -3 -27 -8 -16 -8 -18 -25 -18 -119
l0 -110 -30 0 -30 0 0 145 0 145 30 0 c21 0 30 -5 30 -17z m200 -128 l0 -145
-30 0 -30 0 0 145 0 145 30 0 30 0 0 -145z m150 136 c0 -5 14 -4 30 2 25 9 36
9 58 -4 l27 -15 0 -119 0 -119 -27 -15 c-22 -13 -33 -13 -58 -4 l-30 11 0 -49
c0 -48 -1 -49 -30 -49 l-30 0 0 185 0 185 30 0 c17 0 30 -4 30 -9z m400 0 c0
-5 14 -4 30 2 25 9 36 9 58 -4 l27 -15 0 -119 0 -119 -27 -15 c-22 -13 -33
-13 -58 -4 l-30 11 0 -49 c0 -48 -1 -49 -30 -49 l-30 0 0 185 0 185 30 0 c17
0 30 -4 30 -9z m651 -12 c5 -7 9 -67 9 -131 0 -136 -1 -138 -94 -138 -86 0
-93 11 -92 149 1 100 4 115 21 128 26 19 142 14 156 -8z m440 0 c5 -7 9 -67 9
-131 0 -136 -2 -138 -92 -138 -88 0 -93 8 -93 145 0 105 2 118 20 132 26 19
142 14 156 -8z m247 5 c12 -8 22 -26 22 -40 0 -20 -5 -24 -30 -24 -20 0 -30 5
-30 15 0 9 -9 15 -25 15 -22 0 -25 -4 -25 -35 0 -19 3 -35 8 -36 4 0 22 -2 40
-4 51 -5 62 -20 62 -86 0 -68 -12 -79 -84 -79 -51 0 -86 25 -86 60 0 16 7 20
30 20 20 0 30 -5 30 -15 0 -9 9 -15 25 -15 22 0 25 4 25 35 0 33 -2 35 -33 35
-56 0 -77 23 -77 85 0 64 21 85 85 85 22 0 51 -7 63 -16z m540 0 c19 -13 22
-24 22 -79 l0 -64 -62 -3 c-67 -3 -67 -3 -59 -68 0 -5 15 -10 31 -10 23 0 30
5 30 18 0 14 8 19 30 20 27 1 30 -3 30 -28 0 -40 -32 -60 -95 -60 -82 0 -90
10 -91 132 -1 122 2 137 30 148 35 14 110 11 134 -6z m443 -1 c5 -5 11 -25 12
-44 2 -30 -1 -34 -25 -36 -22 -1 -29 3 -34 23 -4 17 -13 24 -30 24 -26 0 -26
2 -26 -105 0 -36 1 -69 1 -75 1 -5 12 -10 26 -10 14 0 26 5 26 10 1 6 2 16 3
23 0 6 14 12 30 12 26 0 30 -4 32 -29 2 -45 -26 -66 -89 -66 -85 0 -91 9 -95
138 -3 103 -2 112 18 132 19 19 30 22 81 18 33 -2 64 -9 70 -15z m-4851 -217
c0 -30 -47 -136 -60 -136 -6 0 -10 33 -10 80 l0 80 35 0 c30 0 35 -3 35 -24z
m4030 0 c0 -30 -47 -136 -60 -136 -6 0 -10 33 -10 80 l0 80 35 0 c30 0 35 -3
35 -24z m970 -16 c0 -39 -1 -40 -35 -40 -34 0 -35 1 -35 40 0 39 1 40 35 40
34 0 35 -1 35 -40z"/>
<path d="M6313 4374 c-10 -4 -13 -52 -13 -190 0 -168 2 -184 18 -185 30 -3 76
1 81 7 10 9 12 338 3 352 -9 14 -69 25 -89 16z"/>
<path d="M3107 4533 c-4 -3 -7 -122 -7 -264 0 -302 -9 -281 115 -270 13 1 15
38 15 271 l0 270 -58 0 c-32 0 -62 -3 -65 -7z"/>
<path d="M4437 4543 c-3 -7 -2 -177 2 -210 1 -14 95 -18 125 -7 24 9 24 209 0
218 -22 9 -122 7 -127 -1z"/>
<path d="M4435 4105 l0 -116 70 3 70 3 0 110 0 110 -70 3 -70 3 0 -116z"/>
<path d="M5375 4415 l0 -126 65 3 65 3 0 120 0 120 -65 3 -65 3 0 -126z"/>
<path d="M6844 4367 c-2 -7 -3 -94 -2 -192 l3 -180 49 -3 c27 -2 53 1 59 7 11
11 14 351 3 369 -10 17 -105 16 -112 -1z"/>
<path d="M8304 4367 c-2 -7 -3 -94 -2 -192 l3 -180 49 -3 c27 -2 53 1 59 7 11
11 14 351 3 369 -10 17 -105 16 -112 -1z"/>
<path d="M1519 2863 c-8 -61 -7 -63 28 -63 31 0 33 2 33 35 0 32 -2 35 -30 35
-16 0 -30 -3 -31 -7z"/>
<path d="M2399 2853 c-1 -22 -1 -131 0 -155 1 -13 9 -18 31 -18 l30 0 0 95 0
95 -30 0 c-22 0 -30 -5 -31 -17z"/>
<path d="M3869 2853 c-1 -22 -1 -131 0 -155 1 -13 9 -18 31 -18 l30 0 0 95 0
95 -30 0 c-22 0 -30 -5 -31 -17z"/>
<path d="M4999 2853 c-1 -22 -1 -131 0 -155 1 -13 9 -18 31 -18 l30 0 0 95 0
95 -30 0 c-22 0 -30 -5 -31 -17z"/>
<path d="M5449 2863 c-8 -61 -7 -63 28 -63 31 0 33 2 33 35 0 32 -2 35 -30 35
-16 0 -30 -3 -31 -7z"/>
<path d="M6859 2850 c0 -11 -1 -49 -1 -85 0 -36 1 -69 1 -75 1 -5 12 -10 26
-10 25 0 25 0 25 95 0 95 0 95 -25 95 -18 0 -25 -6 -26 -20z"/>
<path d="M8095 2857 c-3 -7 -5 -49 -3 -93 3 -77 4 -79 28 -79 25 0 25 1 25 90
0 86 -1 90 -23 93 -12 2 -24 -3 -27 -11z"/>
<path d="M8495 2857 c-3 -7 -5 -49 -3 -93 3 -77 4 -79 28 -79 25 0 25 1 25 90
0 86 -1 90 -23 93 -12 2 -24 -3 -27 -11z"/>
<path d="M9029 2853 c-1 -22 -1 -131 0 -155 1 -13 9 -18 31 -18 l30 0 0 95 0
95 -30 0 c-22 0 -30 -5 -31 -17z"/>
<path d="M9469 2853 c-1 -22 -1 -131 0 -155 1 -13 9 -18 31 -18 l30 0 0 95 0
95 -30 0 c-22 0 -30 -5 -31 -17z"/>
<path d="M10269 2863 c-8 -61 -7 -63 28 -63 31 0 33 2 33 35 0 32 -2 35 -30
35 -16 0 -30 -3 -31 -7z"/>
</g>
</svg>
